<svg width="240" height="240" viewBox="0 0 240 240" fill="none" xmlns="http://www.w3.org/2000/svg">
<path d="M108.129 28.0539V86.8263L170.969 50.1351C159.181 43.4941 131.954 28.303 125.645 24.8165C121.66 22.6582 119.419 22.5752 118.672 22.6582H118.589L108.129 27.9709V28.0539Z" fill="#00BEF2"/>
<path d="M34.9958 84.0039L85.965 113.224L85.4669 40.5057C73.8453 47.4787 47.1155 63.417 40.9726 67.2355C37.1541 69.6428 35.9089 71.4691 35.6599 72.1332L34.9958 83.9209V84.0039Z" fill="#00BEF2"/>
<path d="M143.326 93.5502L206 130.407C206 116.876 206 85.7471 205.917 78.5251C205.917 74.0424 204.921 72.0501 204.423 71.4691H204.34L194.627 64.8281L143.326 93.5502Z" fill="#00BEF2"/>
<path d="M70.0267 189.761C81.8144 196.402 109.042 211.593 115.351 215.079C119.253 217.238 121.577 217.404 122.241 217.238L132.701 211.925V153.153L69.8607 189.844L70.0267 189.761Z" fill="#00BEF2"/>
<path d="M154.948 126.672L155.529 199.39C167.15 192.417 193.88 176.479 200.023 172.66C203.842 170.336 205.087 168.427 205.336 167.763L206 155.975L155.031 126.755L154.948 126.672Z" fill="#00BEF2"/>
<path d="M36.49 168.51H36.573L46.2854 175.151L97.5866 146.429L34.9128 109.488C34.9128 123.019 34.9128 154.232 34.9958 161.454C34.9958 165.936 35.9919 167.929 36.49 168.51Z" fill="#00BEF2"/>
</svg>
